<svg width="38" height="24" viewBox="0 0 38 24" version="1.1" xmlns="http://www.w3.org/2000/svg" xmlns:xlink="http://www.w3.org/1999/xlink">
<title>behance</title>
<desc>Created using Figma</desc>
<g id="Canvas" transform="translate(-3831 -646)">
<g id="behance">
<use xlink:href="#path0_fill" transform="translate(3831 646)" fill="#FFFFFF"/>
</g>
</g>
<defs>
<path id="path0_fill" fill-rule="evenodd" d="M 33.4003 12.9575C 33.318 11.7624 32.9242 10.8587 32.217 10.2389C 31.5161 9.61958 30.64 9.3078 29.5924 9.3078C 28.4545 9.3078 27.5763 9.64047 26.9514 10.2956C 26.3228 10.9465 25.9312 11.8336 25.7703 12.9575L 33.4003 12.9575ZM 37.8493 12.5097C 37.9649 13.294 38.0161 14.4324 37.9955 15.9227L 25.6651 15.9227C 25.7332 17.6487 26.3206 18.8584 27.4337 19.5489C 28.1061 19.9823 28.9205 20.1955 29.8747 20.1955C 30.8811 20.1955 31.7013 19.9362 32.3325 19.4069C 32.6766 19.1241 32.9796 18.7266 33.2435 18.2262L 37.7628 18.2262C 37.643 19.2478 37.0988 20.2812 36.1214 21.3338C 34.6062 23.0036 32.4808 23.8431 29.7512 23.8431C 27.4981 23.8431 25.5105 23.1359 23.7847 21.7276C 22.0657 20.3149 21.2039 18.0216 21.2039 14.8406C 21.2039 11.8589 21.9792 9.5757 23.5335 7.98734C 25.0941 6.39524 27.1102 5.604 29.5923 5.604C 31.0643 5.604 32.3922 5.86971 33.5754 6.40756C 34.7566 6.9454 35.7298 7.79074 36.4988 8.95214C 37.1938 9.97748 37.6409 11.1598 37.8493 12.5097ZM 14.396 16.4123C 14.396 15.1652 13.8952 14.3048 12.8934 13.8425C 12.3324 13.579 11.5408 13.445 10.5285 13.4343L 5.45288 13.4343L 5.45288 19.8317L 10.4504 19.8317C 11.4748 19.8317 12.2707 19.6956 12.8438 19.4106C 13.8788 18.8878 14.396 17.8914 14.396 16.4123ZM 5.45288 9.46263L 10.4562 9.46263C 11.4853 9.46263 12.3161 9.26388 12.9552 8.86639C 13.5964 8.47104 13.9136 7.76766 13.9136 6.75679C 13.9136 5.63932 13.4909 4.89898 12.6438 4.54274C 11.916 4.29631 10.984 4.16614 9.85452 4.16614L 5.45288 4.16614L 5.45288 9.46263ZM 18.4579 13.2399C 19.0722 14.2068 19.3794 15.3784 19.3794 16.7552C 19.3794 18.1807 19.0326 19.4567 18.328 20.5849C 17.8805 21.3317 17.3237 21.9617 16.656 22.47C 15.9034 23.0582 15.0104 23.46 13.986 23.6754C 12.9595 23.8913 11.8459 24 10.6484 24L 0 24L 0 0L 11.4195 0C 14.2974 0.0482132 16.3383 0.893551 17.5422 2.55691C 18.2658 3.57635 18.6246 4.79829 18.6246 6.22111C 18.6246 7.6884 18.2621 8.86212 17.5321 9.75353C 17.1258 10.2539 16.5257 10.7098 15.7303 11.1201C 16.9342 11.568 17.8472 12.2708 18.4579 13.2399ZM 24.7949 3.39633L 34.3176 3.39633L 34.3176 0.99585L 24.7949 0.99585L 24.7949 3.39633Z"/>
</defs>
</svg>
