<svg width="28" height="24" viewBox="0 0 28 24" version="1.1" xmlns="http://www.w3.org/2000/svg" xmlns:xlink="http://www.w3.org/1999/xlink">
<title>vimeo</title>
<desc>Created using Figma</desc>
<g id="Canvas" transform="translate(-3893 -646)">
<g id="vimeo">
<use xlink:href="#path0_fill" transform="translate(3893 646)" fill="#FFFFFF"/>
</g>
</g>
<defs>
<path id="path0_fill" fill-rule="evenodd" d="M 27.9865 5.55237C 27.8619 8.25322 25.9581 11.9516 22.2758 16.6454C 18.4692 21.5487 15.2483 24 12.6135 24C 10.982 24 9.60014 22.5077 8.47229 19.521C 7.71853 16.7839 6.9656 14.0465 6.21184 11.3094C 5.37407 8.32439 4.47555 6.8301 3.51486 6.8301C 3.30542 6.8301 2.57238 7.26681 1.31741 8.13691L 0 6.45515C 1.38181 5.25191 2.74486 4.04895 4.08635 2.84432C 5.92932 1.26613 7.31281 0.436184 8.23485 0.352553C 10.4141 0.145136 11.7553 1.62115 12.2588 4.78058C 12.8025 8.18953 13.1791 10.3099 13.3908 11.1399C 14.0189 13.9681 14.7099 15.3804 15.4651 15.3804C 16.0511 15.3804 16.9314 14.4633 18.1052 12.6289C 19.2776 10.794 19.9059 9.39803 19.9904 8.43904C 20.1576 6.85558 19.5293 6.06191 18.1052 6.06191C 17.4346 6.06191 16.7438 6.21478 16.0329 6.5169C 17.4088 2.05038 20.038 -0.118774 23.9189 0.00501188C 26.7959 0.0886432 28.1522 1.93767 27.9865 5.55237Z"/>
</defs>
</svg>
